<svg width="136" height="42" viewBox="0 0 136 42" fill="none"
    xmlns="http://www.w3.org/2000/svg">
    <path d="M27.8394 12.633V40.0046H35.0138V17.8578C34.8838 17.5979 34.655 16.8596 34.7798 15.9862C35.0138 13.7248 38.289 14.1147 39.4587 14.5046C40.6284 14.8945 41.5642 17.7018 43.1239 17.9358C46.711 17.7018 46.711 13.1789 44.8394 11.5413C39.7862 9.2954 31.4006 11.3333 27.8394 12.633Z" fill="white"/>
    <path d="M0 5.45872V0.233948L27.5275 0.311929V5.45872H16.844V40.0046H10.2936V5.45872H0Z" fill="white"/>
    <circle cx="53.6514" cy="4.99083" r="4.99083" fill="white"/>
    <circle cx="99.0367" cy="4.99083" r="4.99083" fill="white"/>
    <circle cx="131.009" cy="4.99083" r="4.99083" fill="white"/>
    <rect x="50.2202" y="10.6055" width="6.86239" height="29.3211" fill="white"/>
    <rect x="95.7037" y="10.9136" width="6.86239" height="29.3211" fill="white"/>
    <rect x="127.578" y="10.6055" width="6.86239" height="29.3211" fill="white"/>
    <path d="M71.0413 39.9266H64.4908V16.844C64.4908 13.1009 67.974 11.0474 69.7156 10.4496H80.9449C85.3119 10.4496 87.2355 14.2447 87.6514 16.1422V39.7707H80.9462C80.9458 39.8231 80.9454 39.8751 80.9449 39.9266L80.789 39.7707H80.9462C80.9981 33.2907 81.0687 20.0213 80.9449 17.5459C80.1963 15.3 78.5015 14.6346 77.7477 14.5826H73.3807C71.8211 14.5826 71.1712 16.1422 71.0413 16.922V39.9266Z" fill="white"/>
    <path d="M106.367 10.8395H110.422C110.396 10.0337 110.36 8.20369 110.422 7.33029C110.5 6.23855 114.945 4.21102 115.881 3.58717C116.629 3.08808 116.92 3.53518 116.972 3.82111V10.8395H122.431H122.587V14.6606H117.05V34.7798C118.922 38.445 121.963 37.6651 122.665 37.6651C123.367 37.6651 123.835 38.445 123.523 39.1468C122.431 40.3165 119.702 41.8762 115.881 41.1743C112.824 40.6129 110.968 37.7171 110.422 36.3395V14.5826H106.367V10.8395Z" fill="white"/>
</svg>
